# xmcd
#
# Track frame offsets: 
#        150
#        14059
#        28761
#        51117
#        66985
#        86078
#        113884
#        134253
#        152878
#        168580
#        179968
#        195640
#        206436
#        223045
#        234755
#
# Disc length: 3997 seconds
#
# Revision: 2
# Processed by: cddbd v1.5.2PL0 Copyright (c) Steve Scherf et al.
# Submitted via: ExactAudioCopy v1.0b3
#
DISCID=df0f9b0f
DTITLE=Helge Schneider - I brake together
DYEAR=2007
DGENRE=Comedy
TTITLE0=Meine Supermaus
TTITLE1=Käsebrot
TTITLE2=I brake together
TTITLE3=Lady Suppenhuhn
TTITLE4=Die Trompeten von Mexico
TTITLE5=Pinguine können nicht fliegen
TTITLE6=Texas
TTITLE7=Bitte geh nicht vorbei
TTITLE8=Der Telefonmann
TTITLE9=Mädchen wollen küssen
TTITLE10=Fly me to the moon
TTITLE11=Georgia on my mind
TTITLE12=Jailhouse rock
TTITLE13=Pianosolo
TTITLE14=Interview
EXTD=YEAR: 2007
EXTT0=
EXTT1=
EXTT2=
EXTT3=
EXTT4=
EXTT5=
EXTT6=
EXTT7=
EXTT8=
EXTT9=
EXTT10=
EXTT11=
EXTT12=
EXTT13=
EXTT14=
PLAYORDER=
